<svg xmlns="http://www.w3.org/2000/svg" xmlns:xlink="http://www.w3.org/1999/xlink" width="1080" zoomAndPan="magnify" viewBox="0 0 810 1439.999935" height="1920" preserveAspectRatio="xMidYMid meet" version="1.0"><defs><clipPath id="bc1d7cb025"><path d="M 0 0 L 308.730469 0 L 308.730469 324.382812 L 0 324.382812 Z M 0 0 " clip-rule="nonzero"/></clipPath><clipPath id="eaafb60a33"><path d="M -75 133.261719 C -75 27.703125 10.761719 -57.855469 116.582031 -57.855469 C 222.402344 -57.855469 308.167969 27.703125 308.167969 133.261719 C 308.167969 238.820312 222.402344 324.378906 116.582031 324.378906 C 10.761719 324.378906 -75 238.820312 -75 133.261719 Z M -75 133.261719 " clip-rule="nonzero"/></clipPath><clipPath id="0ec8ee7a61"><path d="M 369.855469 504.855469 L 545 504.855469 L 545 679.535156 L 369.855469 679.535156 Z M 369.855469 504.855469 " clip-rule="nonzero"/></clipPath><clipPath id="99e1932b66"><path d="M 369.855469 592.195312 C 369.855469 543.957031 409.050781 504.855469 457.40625 504.855469 C 505.765625 504.855469 544.957031 543.957031 544.957031 592.195312 C 544.957031 640.433594 505.765625 679.535156 457.40625 679.535156 C 409.050781 679.535156 369.855469 640.433594 369.855469 592.195312 Z M 369.855469 592.195312 " clip-rule="nonzero"/></clipPath><clipPath id="45c4a8f76b"><path d="M 394.535156 517.167969 L 545 517.167969 L 545 667.222656 L 394.535156 667.222656 Z M 394.535156 517.167969 " clip-rule="nonzero"/></clipPath><clipPath id="9310b7916a"><path d="M 394.535156 592.195312 C 394.535156 550.757812 428.203125 517.167969 469.746094 517.167969 C 511.289062 517.167969 544.957031 550.757812 544.957031 592.195312 C 544.957031 633.632812 511.289062 667.222656 469.746094 667.222656 C 428.203125 667.222656 394.535156 633.632812 394.535156 592.195312 Z M 394.535156 592.195312 " clip-rule="nonzero"/></clipPath><clipPath id="272e7167f9"><path d="M 0 0 L 266 0 L 266 282.113281 L 0 282.113281 Z M 0 0 " clip-rule="nonzero"/></clipPath><clipPath id="9786b5474b"><path d="M -61.601562 118.808594 C -61.601562 28.617188 11.679688 -44.492188 102.097656 -44.492188 C 192.515625 -44.492188 265.792969 28.617188 265.792969 118.808594 C 265.792969 209.003906 192.515625 282.113281 102.097656 282.113281 C 11.679688 282.113281 -61.601562 209.003906 -61.601562 118.808594 Z M -61.601562 118.808594 " clip-rule="nonzero"/></clipPath><clipPath id="6fa8cf70c6"><path d="M 116.578125 1029 L 291.9375 1029 L 291.9375 1203.675781 L 116.578125 1203.675781 Z M 116.578125 1029 " clip-rule="nonzero"/></clipPath><clipPath id="37cdd07c7a"><path d="M 116.578125 1116.339844 C 116.578125 1068.101562 155.769531 1029 204.128906 1029 C 252.484375 1029 291.679688 1068.101562 291.679688 1116.339844 C 291.679688 1164.578125 252.484375 1203.675781 204.128906 1203.675781 C 155.769531 1203.675781 116.578125 1164.578125 116.578125 1116.339844 Z M 116.578125 1116.339844 " clip-rule="nonzero"/></clipPath><clipPath id="271fcc2b2a"><path d="M 141.257812 1041.308594 L 291.898438 1041.308594 L 291.898438 1191.367188 L 141.257812 1191.367188 Z M 141.257812 1041.308594 " clip-rule="nonzero"/></clipPath><clipPath id="490d9761b1"><path d="M 141.257812 1116.339844 C 141.257812 1074.898438 174.925781 1041.308594 216.46875 1041.308594 C 258.007812 1041.308594 291.679688 1074.898438 291.679688 1116.339844 C 291.679688 1157.777344 258.007812 1191.367188 216.46875 1191.367188 C 174.925781 1191.367188 141.257812 1157.777344 141.257812 1116.339844 Z M 141.257812 1116.339844 " clip-rule="nonzero"/></clipPath></defs><rect x="-81" width="972" fill="#ffffff" y="-143.999994" height="1727.999922" fill-opacity="1"/><rect x="-81" width="972" fill="#1c5739" y="-143.999994" height="1727.999922" fill-opacity="1"/><g clip-path="url(#bc1d7cb025)"><g clip-path="url(#eaafb60a33)"><path fill="#397d5a" d="M -75 -57.855469 L 308.730469 -57.855469 L 308.730469 324.382812 L -75 324.382812 Z M -75 -57.855469 " fill-opacity="1" fill-rule="nonzero"/></g></g><g clip-path="url(#0ec8ee7a61)"><g clip-path="url(#99e1932b66)"><path fill="#397d5a" d="M 369.855469 504.855469 L 545.214844 504.855469 L 545.214844 679.535156 L 369.855469 679.535156 Z M 369.855469 504.855469 " fill-opacity="1" fill-rule="nonzero"/></g></g><g clip-path="url(#45c4a8f76b)"><g clip-path="url(#9310b7916a)"><path fill="#ffffff" d="M 394.535156 517.167969 L 545.179688 517.167969 L 545.179688 667.222656 L 394.535156 667.222656 Z M 394.535156 517.167969 " fill-opacity="1" fill-rule="nonzero"/></g></g><g clip-path="url(#272e7167f9)"><g clip-path="url(#9786b5474b)"><path fill="#ffffff" d="M -61.601562 -44.492188 L 266.277344 -44.492188 L 266.277344 282.113281 L -61.601562 282.113281 Z M -61.601562 -44.492188 " fill-opacity="1" fill-rule="nonzero"/></g></g><g clip-path="url(#6fa8cf70c6)"><g clip-path="url(#37cdd07c7a)"><path fill="#397d5a" d="M 116.578125 1029 L 291.9375 1029 L 291.9375 1203.675781 L 116.578125 1203.675781 Z M 116.578125 1029 " fill-opacity="1" fill-rule="nonzero"/></g></g><g clip-path="url(#271fcc2b2a)"><g clip-path="url(#490d9761b1)"><path fill="#ffffff" d="M 141.257812 1041.308594 L 291.898438 1041.308594 L 291.898438 1191.367188 L 141.257812 1191.367188 Z M 141.257812 1041.308594 " fill-opacity="1" fill-rule="nonzero"/></g></g></svg>